<svg xmlns="http://www.w3.org/2000/svg" viewBox="-20 -20 1040 1040" width="468" height="468">
<rect x="-20" y="-20" width="1040" height="1040" fill="#ffffff"/>
<rect x="0" y="0" width="1000" height="1000" fill="none" stroke="#9aa0a6" stroke-width="2.2" stroke-dasharray="13.2 8.8"/>
<g fill="none" stroke="#d62828" stroke-width="2.2" stroke-linejoin="round">
<path d="M600,788L600,787.7L599.9,787.3L599.8,787L599.7,786.7L599.5,786.4L599.3,786.1L599.1,785.9L598.9,785.7L598.6,785.5L598.3,785.3L598,785.2L597.7,785.1L597.3,785L597,785L103,785L102.7,785L102.3,785.1L102,785.2L101.7,785.3L101.4,785.5L101.1,785.7L100.9,785.9L100.7,786.1L100.5,786.4L100.3,786.7L100.2,787L100.1,787.3L100,787.7L100,788L100,962L100,962.3L100.1,962.7L100.2,963L100.3,963.3L100.5,963.6L100.7,963.9L100.9,964.1L101.1,964.3L101.4,964.5L101.7,964.7L102,964.8L102.3,964.9L102.7,965L103,965L597,965L597.3,965L597.7,964.9L598,964.8L598.3,964.7L598.6,964.5L598.9,964.3L599.1,964.1L599.3,963.9L599.5,963.6L599.7,963.3L599.8,963L599.9,962.7L600,962.3L600,962Z"/>
<path d="M615,978.8L614.9,978.8L614.8,978.8L614.7,978.8L614.6,978.8L614.5,978.9L614.4,978.9L614.3,979L614.2,979L614.1,979.1L614,979.2L614,979.3L613.9,979.4L613.9,979.5L613.8,979.6L613.8,979.7L613.8,979.8L613.8,979.9L613.8,980L613.8,980.1L613.8,980.2L613.8,980.3L613.8,980.4L613.9,980.5L613.9,980.6L614,980.7L614,980.8L614.1,980.9L614.2,981L614.3,981L614.4,981.1L614.5,981.1L614.6,981.2L614.7,981.2L614.8,981.2L614.9,981.2L615,981.2L615.1,981.2L615.2,981.2L615.3,981.2L615.4,981.2L615.5,981.1L615.6,981.1L615.7,981L615.8,981L615.9,980.9L616,980.8L616,980.7L616.1,980.6L616.1,980.5L616.2,980.4L616.2,980.3L616.2,980.2L616.2,980.1L616.2,980L616.2,979.9L616.2,979.8L616.2,979.7L616.2,979.6L616.1,979.5L616.1,979.4L616,979.3L616,979.2L615.9,979.1L615.8,979L615.7,979L615.6,978.9L615.5,978.9L615.4,978.8L615.3,978.8L615.2,978.8L615.1,978.8Z"/>
<path d="M438.3,978.8L438.2,978.8L438.1,978.8L438,978.8L437.9,978.8L437.8,978.9L437.7,978.9L437.6,979L437.5,979L437.4,979.1L437.4,979.2L437.3,979.3L437.3,979.4L437.2,979.5L437.2,979.6L437.1,979.7L437.1,979.8L437.1,979.9L437.1,980L437.1,980.1L437.1,980.2L437.1,980.3L437.2,980.4L437.2,980.5L437.3,980.6L437.3,980.7L437.4,980.8L437.4,980.9L437.5,981L437.6,981L437.7,981.1L437.8,981.1L437.9,981.2L438,981.2L438.1,981.2L438.2,981.2L438.3,981.2L438.4,981.2L438.6,981.2L438.7,981.2L438.8,981.2L438.9,981.1L439,981.1L439.1,981L439.1,981L439.2,980.9L439.3,980.8L439.4,980.7L439.4,980.6L439.5,980.5L439.5,980.4L439.5,980.3L439.6,980.2L439.6,980.1L439.6,980L439.6,979.9L439.6,979.8L439.5,979.7L439.5,979.6L439.5,979.5L439.4,979.4L439.4,979.3L439.3,979.2L439.2,979.1L439.1,979L439.1,979L439,978.9L438.9,978.9L438.8,978.8L438.7,978.8L438.6,978.8L438.4,978.8Z"/>
<path d="M261.7,978.8L261.6,978.8L261.4,978.8L261.3,978.8L261.2,978.8L261.1,978.9L261,978.9L260.9,979L260.9,979L260.8,979.1L260.7,979.2L260.6,979.3L260.6,979.4L260.5,979.5L260.5,979.6L260.5,979.7L260.4,979.8L260.4,979.9L260.4,980L260.4,980.1L260.4,980.2L260.5,980.3L260.5,980.4L260.5,980.5L260.6,980.6L260.6,980.7L260.7,980.8L260.8,980.9L260.9,981L260.9,981L261,981.1L261.1,981.1L261.2,981.2L261.3,981.2L261.4,981.2L261.6,981.2L261.7,981.2L261.8,981.2L261.9,981.2L262,981.2L262.1,981.2L262.2,981.1L262.3,981.1L262.4,981L262.5,981L262.6,980.9L262.6,980.8L262.7,980.7L262.7,980.6L262.8,980.5L262.8,980.4L262.9,980.3L262.9,980.2L262.9,980.1L262.9,980L262.9,979.9L262.9,979.8L262.9,979.7L262.8,979.6L262.8,979.5L262.7,979.4L262.7,979.3L262.6,979.2L262.6,979.1L262.5,979L262.4,979L262.3,978.9L262.2,978.9L262.1,978.8L262,978.8L261.9,978.8L261.8,978.8Z"/>
<path d="M85,978.8L84.9,978.8L84.8,978.8L84.7,978.8L84.6,978.8L84.5,978.9L84.4,978.9L84.3,979L84.2,979L84.1,979.1L84,979.2L84,979.3L83.9,979.4L83.9,979.5L83.8,979.6L83.8,979.7L83.8,979.8L83.8,979.9L83.8,980L83.8,980.1L83.8,980.2L83.8,980.3L83.8,980.4L83.9,980.5L83.9,980.6L84,980.7L84,980.8L84.1,980.9L84.2,981L84.3,981L84.4,981.1L84.5,981.1L84.6,981.2L84.7,981.2L84.8,981.2L84.9,981.2L85,981.2L85.1,981.2L85.2,981.2L85.3,981.2L85.4,981.2L85.5,981.1L85.6,981.1L85.7,981L85.8,981L85.9,980.9L86,980.8L86,980.7L86.1,980.6L86.1,980.5L86.2,980.4L86.2,980.3L86.2,980.2L86.2,980.1L86.2,980L86.2,979.9L86.2,979.8L86.2,979.7L86.2,979.6L86.1,979.5L86.1,979.4L86,979.3L86,979.2L85.9,979.1L85.8,979L85.7,979L85.6,978.9L85.5,978.9L85.4,978.8L85.3,978.8L85.2,978.8L85.1,978.8Z"/>
<path d="M615,768.8L614.9,768.8L614.8,768.8L614.7,768.8L614.6,768.8L614.5,768.9L614.4,768.9L614.3,769L614.2,769L614.1,769.1L614,769.2L614,769.3L613.9,769.4L613.9,769.5L613.8,769.6L613.8,769.7L613.8,769.8L613.8,769.9L613.8,770L613.8,770.1L613.8,770.2L613.8,770.3L613.8,770.4L613.9,770.5L613.9,770.6L614,770.7L614,770.8L614.1,770.9L614.2,771L614.3,771L614.4,771.1L614.5,771.1L614.6,771.2L614.7,771.2L614.8,771.2L614.9,771.2L615,771.2L615.1,771.2L615.2,771.2L615.3,771.2L615.4,771.2L615.5,771.1L615.6,771.1L615.7,771L615.8,771L615.9,770.9L616,770.8L616,770.7L616.1,770.6L616.1,770.5L616.2,770.4L616.2,770.3L616.2,770.2L616.2,770.1L616.2,770L616.2,769.9L616.2,769.8L616.2,769.7L616.2,769.6L616.1,769.5L616.1,769.4L616,769.3L616,769.2L615.9,769.1L615.8,769L615.7,769L615.6,768.9L615.5,768.9L615.4,768.8L615.3,768.8L615.2,768.8L615.1,768.8Z"/>
<path d="M438.3,768.8L438.2,768.8L438.1,768.8L438,768.8L437.9,768.8L437.8,768.9L437.7,768.9L437.6,769L437.5,769L437.4,769.1L437.4,769.2L437.3,769.3L437.3,769.4L437.2,769.5L437.2,769.6L437.1,769.7L437.1,769.8L437.1,769.9L437.1,770L437.1,770.1L437.1,770.2L437.1,770.3L437.2,770.4L437.2,770.5L437.3,770.6L437.3,770.7L437.4,770.8L437.4,770.9L437.5,771L437.6,771L437.7,771.1L437.8,771.1L437.9,771.2L438,771.2L438.1,771.2L438.2,771.2L438.3,771.2L438.4,771.2L438.6,771.2L438.7,771.2L438.8,771.2L438.9,771.1L439,771.1L439.1,771L439.1,771L439.2,770.9L439.3,770.8L439.4,770.7L439.4,770.6L439.5,770.5L439.5,770.4L439.5,770.3L439.6,770.2L439.6,770.1L439.6,770L439.6,769.9L439.6,769.8L439.5,769.7L439.5,769.6L439.5,769.5L439.4,769.4L439.4,769.3L439.3,769.2L439.2,769.1L439.1,769L439.1,769L439,768.9L438.9,768.9L438.8,768.8L438.7,768.8L438.6,768.8L438.4,768.8Z"/>
<path d="M261.7,768.8L261.6,768.8L261.4,768.8L261.3,768.8L261.2,768.8L261.1,768.9L261,768.9L260.9,769L260.9,769L260.8,769.1L260.7,769.2L260.6,769.3L260.6,769.4L260.5,769.5L260.5,769.6L260.5,769.7L260.4,769.8L260.4,769.9L260.4,770L260.4,770.1L260.4,770.2L260.5,770.3L260.5,770.4L260.5,770.5L260.6,770.6L260.6,770.7L260.7,770.8L260.8,770.9L260.9,771L260.9,771L261,771.1L261.1,771.1L261.2,771.2L261.3,771.2L261.4,771.2L261.6,771.2L261.7,771.2L261.8,771.2L261.9,771.2L262,771.2L262.1,771.2L262.2,771.1L262.3,771.1L262.4,771L262.5,771L262.6,770.9L262.6,770.8L262.7,770.7L262.7,770.6L262.8,770.5L262.8,770.4L262.9,770.3L262.9,770.2L262.9,770.1L262.9,770L262.9,769.9L262.9,769.8L262.9,769.7L262.8,769.6L262.8,769.5L262.7,769.4L262.7,769.3L262.6,769.2L262.6,769.1L262.5,769L262.4,769L262.3,768.9L262.2,768.9L262.1,768.8L262,768.8L261.9,768.8L261.8,768.8Z"/>
<path d="M85,768.8L84.9,768.8L84.8,768.8L84.7,768.8L84.6,768.8L84.5,768.9L84.4,768.9L84.3,769L84.2,769L84.1,769.1L84,769.2L84,769.3L83.9,769.4L83.9,769.5L83.8,769.6L83.8,769.7L83.8,769.8L83.8,769.9L83.8,770L83.8,770.1L83.8,770.2L83.8,770.3L83.8,770.4L83.9,770.5L83.9,770.6L84,770.7L84,770.8L84.1,770.9L84.2,771L84.3,771L84.4,771.1L84.5,771.1L84.6,771.2L84.7,771.2L84.8,771.2L84.9,771.2L85,771.2L85.1,771.2L85.2,771.2L85.3,771.2L85.4,771.2L85.5,771.1L85.6,771.1L85.7,771L85.8,771L85.9,770.9L86,770.8L86,770.7L86.1,770.6L86.1,770.5L86.2,770.4L86.2,770.3L86.2,770.2L86.2,770.1L86.2,770L86.2,769.9L86.2,769.8L86.2,769.7L86.2,769.6L86.1,769.5L86.1,769.4L86,769.3L86,769.2L85.9,769.1L85.8,769L85.7,769L85.6,768.9L85.5,768.9L85.4,768.8L85.3,768.8L85.2,768.8L85.1,768.8Z"/>
<path d="M986.2,872.4L986.2,872.3L986.2,872.2L986.2,872.2L986.2,872.1L986.2,872L986.1,872L986.1,871.9L986,871.9L986,871.8L985.9,871.8L985.8,871.8L985.8,871.8L985.7,871.8L985.7,871.8L984.3,871.8L984.3,871.8L984.2,871.8L984.2,871.8L984.1,871.8L984,871.8L984,871.9L983.9,871.9L983.9,872L983.8,872L983.8,872.1L983.8,872.2L983.8,872.2L983.8,872.3L983.8,872.4L983.8,877.6L983.8,877.7L983.8,877.8L983.8,877.8L983.8,877.9L983.8,878L983.9,878L983.9,878.1L984,878.1L984,878.2L984.1,878.2L984.2,878.2L984.2,878.2L984.3,878.2L984.3,878.2L985.7,878.2L985.7,878.2L985.8,878.2L985.8,878.2L985.9,878.2L986,878.2L986,878.1L986.1,878.1L986.1,878L986.2,878L986.2,877.9L986.2,877.8L986.2,877.8L986.2,877.7L986.2,877.6Z"/>
<path d="M16.2,872.4L16.2,872.3L16.2,872.2L16.2,872.2L16.2,872.1L16.2,872L16.1,872L16.1,871.9L16,871.9L16,871.8L15.9,871.8L15.8,871.8L15.8,871.8L15.7,871.8L15.7,871.8L14.3,871.8L14.3,871.8L14.2,871.8L14.2,871.8L14.1,871.8L14,871.8L14,871.9L13.9,871.9L13.9,872L13.8,872L13.8,872.1L13.8,872.2L13.8,872.2L13.8,872.3L13.8,872.4L13.8,877.6L13.8,877.7L13.8,877.8L13.8,877.8L13.8,877.9L13.8,878L13.9,878L13.9,878.1L14,878.1L14,878.2L14.1,878.2L14.2,878.2L14.2,878.2L14.3,878.2L14.3,878.2L15.7,878.2L15.7,878.2L15.8,878.2L15.8,878.2L15.9,878.2L16,878.2L16,878.1L16.1,878.1L16.1,878L16.2,878L16.2,877.9L16.2,877.8L16.2,877.8L16.2,877.7L16.2,877.6Z"/>
<path d="M968.2,872.4L968.2,872.3L968.2,872.2L968.2,872.2L968.2,872.1L968.2,872L968.1,872L968.1,871.9L968,871.9L968,871.8L967.9,871.8L967.8,871.8L967.8,871.8L967.7,871.8L967.7,871.8L966.3,871.8L966.3,871.8L966.2,871.8L966.2,871.8L966.1,871.8L966,871.8L966,871.9L965.9,871.9L965.9,872L965.8,872L965.8,872.1L965.8,872.2L965.8,872.2L965.8,872.3L965.8,872.4L965.8,877.6L965.8,877.7L965.8,877.8L965.8,877.8L965.8,877.9L965.8,878L965.9,878L965.9,878.1L966,878.1L966,878.2L966.1,878.2L966.2,878.2L966.2,878.2L966.3,878.2L966.3,878.2L967.7,878.2L967.7,878.2L967.8,878.2L967.8,878.2L967.9,878.2L968,878.2L968,878.1L968.1,878.1L968.1,878L968.2,878L968.2,877.9L968.2,877.8L968.2,877.8L968.2,877.7L968.2,877.6Z"/>
<path d="M34.2,872.4L34.2,872.3L34.2,872.2L34.2,872.2L34.2,872.1L34.2,872L34.1,872L34.1,871.9L34,871.9L34,871.8L33.9,871.8L33.8,871.8L33.8,871.8L33.7,871.8L33.7,871.8L32.3,871.8L32.3,871.8L32.2,871.8L32.2,871.8L32.1,871.8L32,871.8L32,871.9L31.9,871.9L31.9,872L31.8,872L31.8,872.1L31.8,872.2L31.8,872.2L31.8,872.3L31.8,872.4L31.8,877.6L31.8,877.7L31.8,877.8L31.8,877.8L31.8,877.9L31.8,878L31.9,878L31.9,878.1L32,878.1L32,878.2L32.1,878.2L32.2,878.2L32.2,878.2L32.3,878.2L32.3,878.2L33.7,878.2L33.7,878.2L33.8,878.2L33.8,878.2L33.9,878.2L34,878.2L34,878.1L34.1,878.1L34.1,878L34.2,878L34.2,877.9L34.2,877.8L34.2,877.8L34.2,877.7L34.2,877.6Z"/>
<path d="M903.2,987.4L903.2,987.3L903.2,987.2L903.2,987.2L903.2,987.1L903.2,987L903.1,987L903.1,986.9L903,986.9L903,986.8L902.9,986.8L902.8,986.8L902.8,986.8L902.7,986.8L902.7,986.8L897.3,986.8L897.3,986.8L897.2,986.8L897.2,986.8L897.1,986.8L897,986.8L897,986.9L896.9,986.9L896.9,987L896.8,987L896.8,987.1L896.8,987.2L896.8,987.2L896.8,987.3L896.8,987.4L896.8,988.6L896.8,988.7L896.8,988.8L896.8,988.8L896.8,988.9L896.8,989L896.9,989L896.9,989.1L897,989.1L897,989.2L897.1,989.2L897.2,989.2L897.2,989.2L897.3,989.2L897.3,989.2L902.7,989.2L902.7,989.2L902.8,989.2L902.8,989.2L902.9,989.2L903,989.2L903,989.1L903.1,989.1L903.1,989L903.2,989L903.2,988.9L903.2,988.8L903.2,988.8L903.2,988.7L903.2,988.6Z"/>
<path d="M903.2,761.4L903.2,761.3L903.2,761.2L903.2,761.2L903.2,761.1L903.2,761L903.1,761L903.1,760.9L903,760.9L903,760.8L902.9,760.8L902.8,760.8L902.8,760.8L902.7,760.8L902.7,760.8L897.3,760.8L897.3,760.8L897.2,760.8L897.2,760.8L897.1,760.8L897,760.8L897,760.9L896.9,760.9L896.9,761L896.8,761L896.8,761.1L896.8,761.2L896.8,761.2L896.8,761.3L896.8,761.4L896.8,762.6L896.8,762.7L896.8,762.8L896.8,762.8L896.8,762.9L896.8,763L896.9,763L896.9,763.1L897,763.1L897,763.2L897.1,763.2L897.2,763.2L897.2,763.2L897.3,763.2L897.3,763.2L902.7,763.2L902.7,763.2L902.8,763.2L902.8,763.2L902.9,763.2L903,763.2L903,763.1L903.1,763.1L903.1,763L903.2,763L903.2,762.9L903.2,762.8L903.2,762.8L903.2,762.7L903.2,762.6Z"/>
<path d="M903.2,969.4L903.2,969.3L903.2,969.2L903.2,969.2L903.2,969.1L903.2,969L903.1,969L903.1,968.9L903,968.9L903,968.8L902.9,968.8L902.8,968.8L902.8,968.8L902.7,968.8L902.7,968.8L897.3,968.8L897.3,968.8L897.2,968.8L897.2,968.8L897.1,968.8L897,968.8L897,968.9L896.9,968.9L896.9,969L896.8,969L896.8,969.1L896.8,969.2L896.8,969.2L896.8,969.3L896.8,969.4L896.8,970.6L896.8,970.7L896.8,970.8L896.8,970.8L896.8,970.9L896.8,971L896.9,971L896.9,971.1L897,971.1L897,971.2L897.1,971.2L897.2,971.2L897.2,971.2L897.3,971.2L897.3,971.2L902.7,971.2L902.7,971.2L902.8,971.2L902.8,971.2L902.9,971.2L903,971.2L903,971.1L903.1,971.1L903.1,971L903.2,971L903.2,970.9L903.2,970.8L903.2,970.8L903.2,970.7L903.2,970.6Z"/>
<path d="M903.2,779.4L903.2,779.3L903.2,779.2L903.2,779.2L903.2,779.1L903.2,779L903.1,779L903.1,778.9L903,778.9L903,778.8L902.9,778.8L902.8,778.8L902.8,778.8L902.7,778.8L902.7,778.8L897.3,778.8L897.3,778.8L897.2,778.8L897.2,778.8L897.1,778.8L897,778.8L897,778.9L896.9,778.9L896.9,779L896.8,779L896.8,779.1L896.8,779.2L896.8,779.2L896.8,779.3L896.8,779.4L896.8,780.6L896.8,780.7L896.8,780.8L896.8,780.8L896.8,780.9L896.8,781L896.9,781L896.9,781.1L897,781.1L897,781.2L897.1,781.2L897.2,781.2L897.2,781.2L897.3,781.2L897.3,781.2L902.7,781.2L902.7,781.2L902.8,781.2L902.8,781.2L902.9,781.2L903,781.2L903,781.1L903.1,781.1L903.1,781L903.2,781L903.2,780.9L903.2,780.8L903.2,780.8L903.2,780.7L903.2,780.6Z"/>
<path d="M783.2,987.4L783.2,987.3L783.2,987.2L783.2,987.2L783.2,987.1L783.2,987L783.1,987L783.1,986.9L783,986.9L783,986.8L782.9,986.8L782.8,986.8L782.8,986.8L782.7,986.8L782.7,986.8L777.3,986.8L777.3,986.8L777.2,986.8L777.2,986.8L777.1,986.8L777,986.8L777,986.9L776.9,986.9L776.9,987L776.8,987L776.8,987.1L776.8,987.2L776.8,987.2L776.8,987.3L776.8,987.4L776.8,988.6L776.8,988.7L776.8,988.8L776.8,988.8L776.8,988.9L776.8,989L776.9,989L776.9,989.1L777,989.1L777,989.2L777.1,989.2L777.2,989.2L777.2,989.2L777.3,989.2L777.3,989.2L782.7,989.2L782.7,989.2L782.8,989.2L782.8,989.2L782.9,989.2L783,989.2L783,989.1L783.1,989.1L783.1,989L783.2,989L783.2,988.9L783.2,988.8L783.2,988.8L783.2,988.7L783.2,988.6Z"/>
<path d="M783.2,761.4L783.2,761.3L783.2,761.2L783.2,761.2L783.2,761.1L783.2,761L783.1,761L783.1,760.9L783,760.9L783,760.8L782.9,760.8L782.8,760.8L782.8,760.8L782.7,760.8L782.7,760.8L777.3,760.8L777.3,760.8L777.2,760.8L777.2,760.8L777.1,760.8L777,760.8L777,760.9L776.9,760.9L776.9,761L776.8,761L776.8,761.1L776.8,761.2L776.8,761.2L776.8,761.3L776.8,761.4L776.8,762.6L776.8,762.7L776.8,762.8L776.8,762.8L776.8,762.9L776.8,763L776.9,763L776.9,763.1L777,763.1L777,763.2L777.1,763.2L777.2,763.2L777.2,763.2L777.3,763.2L777.3,763.2L782.7,763.2L782.7,763.2L782.8,763.2L782.8,763.2L782.9,763.2L783,763.2L783,763.1L783.1,763.1L783.1,763L783.2,763L783.2,762.9L783.2,762.8L783.2,762.8L783.2,762.7L783.2,762.6Z"/>
<path d="M783.2,969.4L783.2,969.3L783.2,969.2L783.2,969.2L783.2,969.1L783.2,969L783.1,969L783.1,968.9L783,968.9L783,968.8L782.9,968.8L782.8,968.8L782.8,968.8L782.7,968.8L782.7,968.8L777.3,968.8L777.3,968.8L777.2,968.8L777.2,968.8L777.1,968.8L777,968.8L777,968.9L776.9,968.9L776.9,969L776.8,969L776.8,969.1L776.8,969.2L776.8,969.2L776.8,969.3L776.8,969.4L776.8,970.6L776.8,970.7L776.8,970.8L776.8,970.8L776.8,970.9L776.8,971L776.9,971L776.9,971.1L777,971.1L777,971.2L777.1,971.2L777.2,971.2L777.2,971.2L777.3,971.2L777.3,971.2L782.7,971.2L782.7,971.2L782.8,971.2L782.8,971.2L782.9,971.2L783,971.2L783,971.1L783.1,971.1L783.1,971L783.2,971L783.2,970.9L783.2,970.8L783.2,970.8L783.2,970.7L783.2,970.6Z"/>
<path d="M783.2,779.4L783.2,779.3L783.2,779.2L783.2,779.2L783.2,779.1L783.2,779L783.1,779L783.1,778.9L783,778.9L783,778.8L782.9,778.8L782.8,778.8L782.8,778.8L782.7,778.8L782.7,778.8L777.3,778.8L777.3,778.8L777.2,778.8L777.2,778.8L777.1,778.8L777,778.8L777,778.9L776.9,778.9L776.9,779L776.8,779L776.8,779.1L776.8,779.2L776.8,779.2L776.8,779.3L776.8,779.4L776.8,780.6L776.8,780.7L776.8,780.8L776.8,780.8L776.8,780.9L776.8,781L776.9,781L776.9,781.1L777,781.1L777,781.2L777.1,781.2L777.2,781.2L777.2,781.2L777.3,781.2L777.3,781.2L782.7,781.2L782.7,781.2L782.8,781.2L782.8,781.2L782.9,781.2L783,781.2L783,781.1L783.1,781.1L783.1,781L783.2,781L783.2,780.9L783.2,780.8L783.2,780.8L783.2,780.7L783.2,780.6Z"/>
<path d="M673.2,987.4L673.2,987.3L673.2,987.2L673.2,987.2L673.2,987.1L673.2,987L673.1,987L673.1,986.9L673,986.9L673,986.8L672.9,986.8L672.8,986.8L672.8,986.8L672.7,986.8L672.7,986.8L667.3,986.8L667.3,986.8L667.2,986.8L667.2,986.8L667.1,986.8L667,986.8L667,986.9L666.9,986.9L666.9,987L666.8,987L666.8,987.1L666.8,987.2L666.8,987.2L666.8,987.3L666.8,987.4L666.8,988.6L666.8,988.7L666.8,988.8L666.8,988.8L666.8,988.9L666.8,989L666.9,989L666.9,989.1L667,989.1L667,989.2L667.1,989.2L667.2,989.2L667.2,989.2L667.3,989.2L667.3,989.2L672.7,989.2L672.7,989.2L672.8,989.2L672.8,989.2L672.9,989.2L673,989.2L673,989.1L673.1,989.1L673.1,989L673.2,989L673.2,988.9L673.2,988.8L673.2,988.8L673.2,988.7L673.2,988.6Z"/>
<path d="M673.2,761.4L673.2,761.3L673.2,761.2L673.2,761.2L673.2,761.1L673.2,761L673.1,761L673.1,760.9L673,760.9L673,760.8L672.9,760.8L672.8,760.8L672.8,760.8L672.7,760.8L672.7,760.8L667.3,760.8L667.3,760.8L667.2,760.8L667.2,760.8L667.1,760.8L667,760.8L667,760.9L666.9,760.9L666.9,761L666.8,761L666.8,761.1L666.8,761.2L666.8,761.2L666.8,761.3L666.8,761.4L666.8,762.6L666.8,762.7L666.8,762.8L666.8,762.8L666.8,762.9L666.8,763L666.9,763L666.9,763.1L667,763.1L667,763.2L667.1,763.2L667.2,763.2L667.2,763.2L667.3,763.2L667.3,763.2L672.7,763.2L672.7,763.2L672.8,763.2L672.8,763.2L672.9,763.2L673,763.2L673,763.1L673.1,763.1L673.1,763L673.2,763L673.2,762.9L673.2,762.8L673.2,762.8L673.2,762.7L673.2,762.6Z"/>
<path d="M673.2,969.4L673.2,969.3L673.2,969.2L673.2,969.2L673.2,969.1L673.2,969L673.1,969L673.1,968.9L673,968.9L673,968.8L672.9,968.8L672.8,968.8L672.8,968.8L672.7,968.8L672.7,968.8L667.3,968.8L667.3,968.8L667.2,968.8L667.2,968.8L667.1,968.8L667,968.8L667,968.9L666.9,968.9L666.9,969L666.8,969L666.8,969.1L666.8,969.2L666.8,969.2L666.8,969.3L666.8,969.4L666.8,970.6L666.8,970.7L666.8,970.8L666.8,970.8L666.8,970.9L666.8,971L666.9,971L666.9,971.1L667,971.1L667,971.2L667.1,971.2L667.2,971.2L667.2,971.2L667.3,971.2L667.3,971.2L672.7,971.2L672.7,971.2L672.8,971.2L672.8,971.2L672.9,971.2L673,971.2L673,971.1L673.1,971.1L673.1,971L673.2,971L673.2,970.9L673.2,970.8L673.2,970.8L673.2,970.7L673.2,970.6Z"/>
<path d="M673.2,779.4L673.2,779.3L673.2,779.2L673.2,779.2L673.2,779.1L673.2,779L673.1,779L673.1,778.9L673,778.9L673,778.8L672.9,778.8L672.8,778.8L672.8,778.8L672.7,778.8L672.7,778.8L667.3,778.8L667.3,778.8L667.2,778.8L667.2,778.8L667.1,778.8L667,778.8L667,778.9L666.9,778.9L666.9,779L666.8,779L666.8,779.1L666.8,779.2L666.8,779.2L666.8,779.3L666.8,779.4L666.8,780.6L666.8,780.7L666.8,780.8L666.8,780.8L666.8,780.9L666.8,781L666.9,781L666.9,781.1L667,781.1L667,781.2L667.1,781.2L667.2,781.2L667.2,781.2L667.3,781.2L667.3,781.2L672.7,781.2L672.7,781.2L672.8,781.2L672.8,781.2L672.9,781.2L673,781.2L673,781.1L673.1,781.1L673.1,781L673.2,781L673.2,780.9L673.2,780.8L673.2,780.8L673.2,780.7L673.2,780.6Z"/>
<path d="M53.2,987.4L53.2,987.3L53.2,987.2L53.2,987.2L53.2,987.1L53.2,987L53.1,987L53.1,986.9L53,986.9L53,986.8L52.9,986.8L52.8,986.8L52.8,986.8L52.7,986.8L52.7,986.8L47.3,986.8L47.3,986.8L47.2,986.8L47.2,986.8L47.1,986.8L47,986.8L47,986.9L46.9,986.9L46.9,987L46.8,987L46.8,987.1L46.8,987.2L46.8,987.2L46.8,987.3L46.8,987.4L46.8,988.6L46.8,988.7L46.8,988.8L46.8,988.8L46.8,988.9L46.8,989L46.9,989L46.9,989.1L47,989.1L47,989.2L47.1,989.2L47.2,989.2L47.2,989.2L47.3,989.2L47.3,989.2L52.7,989.2L52.7,989.2L52.8,989.2L52.8,989.2L52.9,989.2L53,989.2L53,989.1L53.1,989.1L53.1,989L53.2,989L53.2,988.9L53.2,988.8L53.2,988.8L53.2,988.7L53.2,988.6Z"/>
<path d="M53.2,761.4L53.2,761.3L53.2,761.2L53.2,761.2L53.2,761.1L53.2,761L53.1,761L53.1,760.9L53,760.9L53,760.8L52.9,760.8L52.8,760.8L52.8,760.8L52.7,760.8L52.7,760.8L47.3,760.8L47.3,760.8L47.2,760.8L47.2,760.8L47.1,760.8L47,760.8L47,760.9L46.9,760.9L46.9,761L46.8,761L46.8,761.1L46.8,761.2L46.8,761.2L46.8,761.3L46.8,761.4L46.8,762.6L46.8,762.7L46.8,762.8L46.8,762.8L46.8,762.9L46.8,763L46.9,763L46.9,763.1L47,763.1L47,763.2L47.1,763.2L47.2,763.2L47.2,763.2L47.3,763.2L47.3,763.2L52.7,763.2L52.7,763.2L52.8,763.2L52.8,763.2L52.9,763.2L53,763.2L53,763.1L53.1,763.1L53.1,763L53.2,763L53.2,762.9L53.2,762.8L53.2,762.8L53.2,762.7L53.2,762.6Z"/>
<path d="M53.2,969.4L53.2,969.3L53.2,969.2L53.2,969.2L53.2,969.1L53.2,969L53.1,969L53.1,968.9L53,968.9L53,968.8L52.9,968.8L52.8,968.8L52.8,968.8L52.7,968.8L52.7,968.8L47.3,968.8L47.3,968.8L47.2,968.8L47.2,968.8L47.1,968.8L47,968.8L47,968.9L46.9,968.9L46.9,969L46.8,969L46.8,969.1L46.8,969.2L46.8,969.2L46.8,969.3L46.8,969.4L46.8,970.6L46.8,970.7L46.8,970.8L46.8,970.8L46.8,970.9L46.8,971L46.9,971L46.9,971.1L47,971.1L47,971.2L47.1,971.2L47.2,971.2L47.2,971.2L47.3,971.2L47.3,971.2L52.7,971.2L52.7,971.2L52.8,971.2L52.8,971.2L52.9,971.2L53,971.2L53,971.1L53.1,971.1L53.1,971L53.2,971L53.2,970.9L53.2,970.8L53.2,970.8L53.2,970.7L53.2,970.6Z"/>
<path d="M53.2,779.4L53.2,779.3L53.2,779.2L53.2,779.2L53.2,779.1L53.2,779L53.1,779L53.1,778.9L53,778.9L53,778.8L52.9,778.8L52.8,778.8L52.8,778.8L52.7,778.8L52.7,778.8L47.3,778.8L47.3,778.8L47.2,778.8L47.2,778.8L47.1,778.8L47,778.8L47,778.9L46.9,778.9L46.9,779L46.8,779L46.8,779.1L46.8,779.2L46.8,779.2L46.8,779.3L46.8,779.4L46.8,780.6L46.8,780.7L46.8,780.8L46.8,780.8L46.8,780.9L46.8,781L46.9,781L46.9,781.1L47,781.1L47,781.2L47.1,781.2L47.2,781.2L47.2,781.2L47.3,781.2L47.3,781.2L52.7,781.2L52.7,781.2L52.8,781.2L52.8,781.2L52.9,781.2L53,781.2L53,781.1L53.1,781.1L53.1,781L53.2,781L53.2,780.9L53.2,780.8L53.2,780.8L53.2,780.7L53.2,780.6Z"/>
<path d="M994,1000L994,960L1000,960L1000,930L994,930L994,890L1000,890L1000,860L994,860L994,820L1000,820L1000,790L994,790L994,750L969.4,750L969.4,756L939.4,756L939.4,750L908.8,750L908.8,756L878.8,756L878.8,750L848.2,750L848.2,756L818.2,756L818.2,750L787.6,750L787.6,756L757.6,756L757.6,750L727.1,750L727.1,756L697.1,756L697.1,750L666.5,750L666.5,756L636.5,756L636.5,750L605.9,750L605.9,756L575.9,756L575.9,750L545.3,750L545.3,756L515.3,756L515.3,750L484.7,750L484.7,756L454.7,756L454.7,750L424.1,750L424.1,756L394.1,756L394.1,750L363.5,750L363.5,756L333.5,756L333.5,750L302.9,750L302.9,756L272.9,756L272.9,750L242.4,750L242.4,756L212.4,756L212.4,750L181.8,750L181.8,756L151.8,756L151.8,750L121.2,750L121.2,756L91.2,756L91.2,750L60.6,750L60.6,756L30.6,756L30.6,750L6,750L6,790L0,790L0,820L6,820L6,860L0,860L0,890L6,890L6,930L0,930L0,960L6,960L6,1000L30.6,1000L30.6,994L60.6,994L60.6,1000L91.2,1000L91.2,994L121.2,994L121.2,1000L151.8,1000L151.8,994L181.8,994L181.8,1000L212.4,1000L212.4,994L242.4,994L242.4,1000L272.9,1000L272.9,994L302.9,994L302.9,1000L333.5,1000L333.5,994L363.5,994L363.5,1000L394.1,1000L394.1,994L424.1,994L424.1,1000L454.7,1000L454.7,994L484.7,994L484.7,1000L515.3,1000L515.3,994L545.3,994L545.3,1000L575.9,1000L575.9,994L605.9,994L605.9,1000L636.5,1000L636.5,994L666.5,994L666.5,1000L697.1,1000L697.1,994L727.1,994L727.1,1000L757.6,1000L757.6,994L787.6,994L787.6,1000L818.2,1000L818.2,994L848.2,994L848.2,1000L878.8,1000L878.8,994L908.8,994L908.8,1000L939.4,1000L939.4,994L969.4,994L969.4,1000L994,1000Z"/>
<path d="M600,530L600,529.7L599.9,529.3L599.8,529L599.7,528.7L599.5,528.4L599.3,528.1L599.1,527.9L598.9,527.7L598.6,527.5L598.3,527.3L598,527.2L597.7,527.1L597.3,527L597,527L103,527L102.7,527L102.3,527.1L102,527.2L101.7,527.3L101.4,527.5L101.1,527.7L100.9,527.9L100.7,528.1L100.5,528.4L100.3,528.7L100.2,529L100.1,529.3L100,529.7L100,530L100,704L100,704.3L100.1,704.7L100.2,705L100.3,705.3L100.5,705.6L100.7,705.9L100.9,706.1L101.1,706.3L101.4,706.5L101.7,706.7L102,706.8L102.3,706.9L102.7,707L103,707L597,707L597.3,707L597.7,706.9L598,706.8L598.3,706.7L598.6,706.5L598.9,706.3L599.1,706.1L599.3,705.9L599.5,705.6L599.7,705.3L599.8,705L599.9,704.7L600,704.3L600,704Z"/>
<path d="M615,720.8L614.9,720.8L614.8,720.8L614.7,720.8L614.6,720.8L614.5,720.9L614.4,720.9L614.3,721L614.2,721L614.1,721.1L614,721.2L614,721.3L613.9,721.4L613.9,721.5L613.8,721.6L613.8,721.7L613.8,721.8L613.8,721.9L613.8,722L613.8,722.1L613.8,722.2L613.8,722.3L613.8,722.4L613.9,722.5L613.9,722.6L614,722.7L614,722.8L614.1,722.9L614.2,723L614.3,723L614.4,723.1L614.5,723.1L614.6,723.2L614.7,723.2L614.8,723.2L614.9,723.2L615,723.2L615.1,723.2L615.2,723.2L615.3,723.2L615.4,723.2L615.5,723.1L615.6,723.1L615.7,723L615.8,723L615.9,722.9L616,722.8L616,722.7L616.1,722.6L616.1,722.5L616.2,722.4L616.2,722.3L616.2,722.2L616.2,722.1L616.2,722L616.2,721.9L616.2,721.8L616.2,721.7L616.2,721.6L616.1,721.5L616.1,721.4L616,721.3L616,721.2L615.9,721.1L615.8,721L615.7,721L615.6,720.9L615.5,720.9L615.4,720.8L615.3,720.8L615.2,720.8L615.1,720.8Z"/>
<path d="M438.3,720.8L438.2,720.8L438.1,720.8L438,720.8L437.9,720.8L437.8,720.9L437.7,720.9L437.6,721L437.5,721L437.4,721.1L437.4,721.2L437.3,721.3L437.3,721.4L437.2,721.5L437.2,721.6L437.1,721.7L437.1,721.8L437.1,721.9L437.1,722L437.1,722.1L437.1,722.2L437.1,722.3L437.2,722.4L437.2,722.5L437.3,722.6L437.3,722.7L437.4,722.8L437.4,722.9L437.5,723L437.6,723L437.7,723.1L437.8,723.1L437.9,723.2L438,723.2L438.1,723.2L438.2,723.2L438.3,723.2L438.4,723.2L438.6,723.2L438.7,723.2L438.8,723.2L438.9,723.1L439,723.1L439.1,723L439.1,723L439.2,722.9L439.3,722.8L439.4,722.7L439.4,722.6L439.5,722.5L439.5,722.4L439.5,722.3L439.6,722.2L439.6,722.1L439.6,722L439.6,721.9L439.6,721.8L439.5,721.7L439.5,721.6L439.5,721.5L439.4,721.4L439.4,721.3L439.3,721.2L439.2,721.1L439.1,721L439.1,721L439,720.9L438.9,720.9L438.8,720.8L438.7,720.8L438.6,720.8L438.4,720.8Z"/>
<path d="M261.7,720.8L261.6,720.8L261.4,720.8L261.3,720.8L261.2,720.8L261.1,720.9L261,720.9L260.9,721L260.9,721L260.8,721.1L260.7,721.2L260.6,721.3L260.6,721.4L260.5,721.5L260.5,721.6L260.5,721.7L260.4,721.8L260.4,721.9L260.4,722L260.4,722.1L260.4,722.2L260.5,722.3L260.5,722.4L260.5,722.5L260.6,722.6L260.6,722.7L260.7,722.8L260.8,722.9L260.9,723L260.9,723L261,723.1L261.1,723.1L261.2,723.2L261.3,723.2L261.4,723.2L261.6,723.2L261.7,723.2L261.8,723.2L261.9,723.2L262,723.2L262.1,723.2L262.2,723.1L262.3,723.1L262.4,723L262.5,723L262.6,722.9L262.6,722.8L262.7,722.7L262.7,722.6L262.8,722.5L262.8,722.4L262.9,722.3L262.9,722.2L262.9,722.1L262.9,722L262.9,721.9L262.9,721.8L262.9,721.7L262.8,721.6L262.8,721.5L262.7,721.4L262.7,721.3L262.6,721.2L262.6,721.1L262.5,721L262.4,721L262.3,720.9L262.2,720.9L262.1,720.8L262,720.8L261.9,720.8L261.8,720.8Z"/>
<path d="M85,720.8L84.9,720.8L84.8,720.8L84.7,720.8L84.6,720.8L84.5,720.9L84.4,720.9L84.3,721L84.2,721L84.1,721.1L84,721.2L84,721.3L83.9,721.4L83.9,721.5L83.8,721.6L83.8,721.7L83.8,721.8L83.8,721.9L83.8,722L83.8,722.1L83.8,722.2L83.8,722.3L83.8,722.4L83.9,722.5L83.9,722.6L84,722.7L84,722.8L84.1,722.9L84.2,723L84.3,723L84.4,723.1L84.5,723.1L84.6,723.2L84.7,723.2L84.8,723.2L84.9,723.2L85,723.2L85.1,723.2L85.2,723.2L85.3,723.2L85.4,723.2L85.5,723.1L85.6,723.1L85.7,723L85.8,723L85.9,722.9L86,722.8L86,722.7L86.1,722.6L86.1,722.5L86.2,722.4L86.2,722.3L86.2,722.2L86.2,722.1L86.2,722L86.2,721.9L86.2,721.8L86.2,721.7L86.2,721.6L86.1,721.5L86.1,721.4L86,721.3L86,721.2L85.9,721.1L85.8,721L85.7,721L85.6,720.9L85.5,720.9L85.4,720.8L85.3,720.8L85.2,720.8L85.1,720.8Z"/>
<path d="M615,510.8L614.9,510.8L614.8,510.8L614.7,510.8L614.6,510.8L614.5,510.9L614.4,510.9L614.3,511L614.2,511L614.1,511.1L614,511.2L614,511.3L613.9,511.4L613.9,511.5L613.8,511.6L613.8,511.7L613.8,511.8L613.8,511.9L613.8,512L613.8,512.1L613.8,512.2L613.8,512.3L613.8,512.4L613.9,512.5L613.9,512.6L614,512.7L614,512.8L614.1,512.9L614.2,513L614.3,513L614.4,513.1L614.5,513.1L614.6,513.2L614.7,513.2L614.8,513.2L614.9,513.2L615,513.2L615.1,513.2L615.2,513.2L615.3,513.2L615.4,513.2L615.5,513.1L615.6,513.1L615.7,513L615.8,513L615.9,512.9L616,512.8L616,512.7L616.1,512.6L616.1,512.5L616.2,512.4L616.2,512.3L616.2,512.2L616.2,512.1L616.2,512L616.2,511.9L616.2,511.8L616.2,511.7L616.2,511.6L616.1,511.5L616.1,511.4L616,511.3L616,511.2L615.9,511.1L615.8,511L615.7,511L615.6,510.9L615.5,510.9L615.4,510.8L615.3,510.8L615.2,510.8L615.1,510.8Z"/>
<path d="M438.3,510.8L438.2,510.8L438.1,510.8L438,510.8L437.9,510.8L437.8,510.9L437.7,510.9L437.6,511L437.5,511L437.4,511.1L437.4,511.2L437.3,511.3L437.3,511.4L437.2,511.5L437.2,511.6L437.1,511.7L437.1,511.8L437.1,511.9L437.1,512L437.1,512.1L437.1,512.2L437.1,512.3L437.2,512.4L437.2,512.5L437.3,512.6L437.3,512.7L437.4,512.8L437.4,512.9L437.5,513L437.6,513L437.7,513.1L437.8,513.1L437.9,513.2L438,513.2L438.1,513.2L438.2,513.2L438.3,513.2L438.4,513.2L438.6,513.2L438.7,513.2L438.8,513.2L438.9,513.1L439,513.1L439.1,513L439.1,513L439.2,512.9L439.3,512.8L439.4,512.7L439.4,512.6L439.5,512.5L439.5,512.4L439.5,512.3L439.6,512.2L439.6,512.1L439.6,512L439.6,511.9L439.6,511.8L439.5,511.7L439.5,511.6L439.5,511.5L439.4,511.4L439.4,511.3L439.3,511.2L439.2,511.1L439.1,511L439.1,511L439,510.9L438.9,510.9L438.8,510.8L438.7,510.8L438.6,510.8L438.4,510.8Z"/>
<path d="M261.7,510.8L261.6,510.8L261.4,510.8L261.3,510.8L261.2,510.8L261.1,510.9L261,510.9L260.9,511L260.9,511L260.8,511.1L260.7,511.2L260.6,511.3L260.6,511.4L260.5,511.5L260.5,511.6L260.5,511.7L260.4,511.8L260.4,511.9L260.4,512L260.4,512.1L260.4,512.2L260.5,512.3L260.5,512.4L260.5,512.5L260.6,512.6L260.6,512.7L260.7,512.8L260.8,512.9L260.9,513L260.9,513L261,513.1L261.1,513.1L261.2,513.2L261.3,513.2L261.4,513.2L261.6,513.2L261.7,513.2L261.8,513.2L261.9,513.2L262,513.2L262.1,513.2L262.2,513.1L262.3,513.1L262.4,513L262.5,513L262.6,512.9L262.6,512.8L262.7,512.7L262.7,512.6L262.8,512.5L262.8,512.4L262.9,512.3L262.9,512.2L262.9,512.1L262.9,512L262.9,511.9L262.9,511.8L262.9,511.7L262.8,511.6L262.8,511.5L262.7,511.4L262.7,511.3L262.6,511.2L262.6,511.1L262.5,511L262.4,511L262.3,510.9L262.2,510.9L262.1,510.8L262,510.8L261.9,510.8L261.8,510.8Z"/>
<path d="M85,510.8L84.9,510.8L84.8,510.8L84.7,510.8L84.6,510.8L84.5,510.9L84.4,510.9L84.3,511L84.2,511L84.1,511.1L84,511.2L84,511.3L83.9,511.4L83.9,511.5L83.8,511.6L83.8,511.7L83.8,511.8L83.8,511.9L83.8,512L83.8,512.1L83.8,512.2L83.8,512.3L83.8,512.4L83.9,512.5L83.9,512.6L84,512.7L84,512.8L84.1,512.9L84.2,513L84.3,513L84.4,513.1L84.5,513.1L84.6,513.2L84.7,513.2L84.8,513.2L84.9,513.2L85,513.2L85.1,513.2L85.2,513.2L85.3,513.2L85.4,513.2L85.5,513.1L85.6,513.1L85.7,513L85.8,513L85.9,512.9L86,512.8L86,512.7L86.1,512.6L86.1,512.5L86.2,512.4L86.2,512.3L86.2,512.2L86.2,512.1L86.2,512L86.2,511.9L86.2,511.8L86.2,511.7L86.2,511.6L86.1,511.5L86.1,511.4L86,511.3L86,511.2L85.9,511.1L85.8,511L85.7,511L85.6,510.9L85.5,510.9L85.4,510.8L85.3,510.8L85.2,510.8L85.1,510.8Z"/>
<path d="M986.2,614.4L986.2,614.3L986.2,614.2L986.2,614.2L986.2,614.1L986.2,614L986.1,614L986.1,613.9L986,613.9L986,613.8L985.9,613.8L985.8,613.8L985.8,613.8L985.7,613.8L985.7,613.8L984.3,613.8L984.3,613.8L984.2,613.8L984.2,613.8L984.1,613.8L984,613.8L984,613.9L983.9,613.9L983.9,614L983.8,614L983.8,614.1L983.8,614.2L983.8,614.2L983.8,614.3L983.8,614.4L983.8,619.6L983.8,619.7L983.8,619.8L983.8,619.8L983.8,619.9L983.8,620L983.9,620L983.9,620.1L984,620.1L984,620.2L984.1,620.2L984.2,620.2L984.2,620.2L984.3,620.2L984.3,620.2L985.7,620.2L985.7,620.2L985.8,620.2L985.8,620.2L985.9,620.2L986,620.2L986,620.1L986.1,620.1L986.1,620L986.2,620L986.2,619.9L986.2,619.8L986.2,619.8L986.2,619.7L986.2,619.6Z"/>
<path d="M16.2,614.4L16.2,614.3L16.2,614.2L16.2,614.2L16.2,614.1L16.2,614L16.1,614L16.1,613.9L16,613.9L16,613.8L15.9,613.8L15.8,613.8L15.8,613.8L15.7,613.8L15.7,613.8L14.3,613.8L14.3,613.8L14.2,613.8L14.2,613.8L14.1,613.8L14,613.8L14,613.9L13.9,613.9L13.9,614L13.8,614L13.8,614.1L13.8,614.2L13.8,614.2L13.8,614.3L13.8,614.4L13.8,619.6L13.8,619.7L13.8,619.8L13.8,619.8L13.8,619.9L13.8,620L13.9,620L13.9,620.1L14,620.1L14,620.2L14.1,620.2L14.2,620.2L14.2,620.2L14.3,620.2L14.3,620.2L15.7,620.2L15.7,620.2L15.8,620.2L15.8,620.2L15.9,620.2L16,620.2L16,620.1L16.1,620.1L16.1,620L16.2,620L16.2,619.9L16.2,619.8L16.2,619.8L16.2,619.7L16.2,619.6Z"/>
<path d="M968.2,614.4L968.2,614.3L968.2,614.2L968.2,614.2L968.2,614.1L968.2,614L968.1,614L968.1,613.9L968,613.9L968,613.8L967.9,613.8L967.8,613.8L967.8,613.8L967.7,613.8L967.7,613.8L966.3,613.8L966.3,613.8L966.2,613.8L966.2,613.8L966.1,613.8L966,613.8L966,613.9L965.9,613.9L965.9,614L965.8,614L965.8,614.1L965.8,614.2L965.8,614.2L965.8,614.3L965.8,614.4L965.8,619.6L965.8,619.7L965.8,619.8L965.8,619.8L965.8,619.9L965.8,620L965.9,620L965.9,620.1L966,620.1L966,620.2L966.1,620.2L966.2,620.2L966.2,620.2L966.3,620.2L966.3,620.2L967.7,620.2L967.7,620.2L967.8,620.2L967.8,620.2L967.9,620.2L968,620.2L968,620.1L968.1,620.1L968.1,620L968.2,620L968.2,619.9L968.2,619.8L968.2,619.8L968.2,619.7L968.2,619.6Z"/>
<path d="M34.2,614.4L34.2,614.3L34.2,614.2L34.2,614.2L34.2,614.1L34.2,614L34.1,614L34.1,613.9L34,613.9L34,613.8L33.9,613.8L33.8,613.8L33.8,613.8L33.7,613.8L33.7,613.8L32.3,613.8L32.3,613.8L32.2,613.8L32.2,613.8L32.1,613.8L32,613.8L32,613.9L31.9,613.9L31.9,614L31.8,614L31.8,614.1L31.8,614.2L31.8,614.2L31.8,614.3L31.8,614.4L31.8,619.6L31.8,619.7L31.8,619.8L31.8,619.8L31.8,619.9L31.8,620L31.9,620L31.9,620.1L32,620.1L32,620.2L32.1,620.2L32.2,620.2L32.2,620.2L32.3,620.2L32.3,620.2L33.7,620.2L33.7,620.2L33.8,620.2L33.8,620.2L33.9,620.2L34,620.2L34,620.1L34.1,620.1L34.1,620L34.2,620L34.2,619.9L34.2,619.8L34.2,619.8L34.2,619.7L34.2,619.6Z"/>
<path d="M903.2,729.4L903.2,729.3L903.2,729.2L903.2,729.2L903.2,729.1L903.2,729L903.1,729L903.1,728.9L903,728.9L903,728.8L902.9,728.8L902.8,728.8L902.8,728.8L902.7,728.8L902.7,728.8L897.3,728.8L897.3,728.8L897.2,728.8L897.2,728.8L897.1,728.8L897,728.8L897,728.9L896.9,728.9L896.9,729L896.8,729L896.8,729.1L896.8,729.2L896.8,729.2L896.8,729.3L896.8,729.4L896.8,730.6L896.8,730.7L896.8,730.8L896.8,730.8L896.8,730.9L896.8,731L896.9,731L896.9,731.1L897,731.1L897,731.2L897.1,731.2L897.2,731.2L897.2,731.2L897.3,731.2L897.3,731.2L902.7,731.2L902.7,731.2L902.8,731.2L902.8,731.2L902.9,731.2L903,731.2L903,731.1L903.1,731.1L903.1,731L903.2,731L903.2,730.9L903.2,730.8L903.2,730.8L903.2,730.7L903.2,730.6Z"/>
<path d="M903.2,503.4L903.2,503.3L903.2,503.2L903.2,503.2L903.2,503.1L903.2,503L903.1,503L903.1,502.9L903,502.9L903,502.8L902.9,502.8L902.8,502.8L902.8,502.8L902.7,502.8L902.7,502.8L897.3,502.8L897.3,502.8L897.2,502.8L897.2,502.8L897.1,502.8L897,502.8L897,502.9L896.9,502.9L896.9,503L896.8,503L896.8,503.1L896.8,503.2L896.8,503.2L896.8,503.3L896.8,503.4L896.8,504.6L896.8,504.7L896.8,504.8L896.8,504.8L896.8,504.9L896.8,505L896.9,505L896.9,505.1L897,505.1L897,505.2L897.1,505.2L897.2,505.2L897.2,505.2L897.3,505.2L897.3,505.2L902.7,505.2L902.7,505.2L902.8,505.2L902.8,505.2L902.9,505.2L903,505.2L903,505.1L903.1,505.1L903.1,505L903.2,505L903.2,504.9L903.2,504.8L903.2,504.8L903.2,504.7L903.2,504.6Z"/>
<path d="M903.2,711.4L903.2,711.3L903.2,711.2L903.2,711.2L903.2,711.1L903.2,711L903.1,711L903.1,710.9L903,710.9L903,710.8L902.9,710.8L902.8,710.8L902.8,710.8L902.7,710.8L902.7,710.8L897.3,710.8L897.3,710.8L897.2,710.8L897.2,710.8L897.1,710.8L897,710.8L897,710.9L896.9,710.9L896.9,711L896.8,711L896.8,711.1L896.8,711.2L896.8,711.2L896.8,711.3L896.8,711.4L896.8,712.6L896.8,712.7L896.8,712.8L896.8,712.8L896.8,712.9L896.8,713L896.9,713L896.9,713.1L897,713.1L897,713.2L897.1,713.2L897.2,713.2L897.2,713.2L897.3,713.2L897.3,713.2L902.7,713.2L902.7,713.2L902.8,713.2L902.8,713.2L902.9,713.2L903,713.2L903,713.1L903.1,713.1L903.1,713L903.2,713L903.2,712.9L903.2,712.8L903.2,712.8L903.2,712.7L903.2,712.6Z"/>
<path d="M903.2,521.4L903.2,521.3L903.2,521.2L903.2,521.2L903.2,521.1L903.2,521L903.1,521L903.1,520.9L903,520.9L903,520.8L902.9,520.8L902.8,520.8L902.8,520.8L902.7,520.8L902.7,520.8L897.3,520.8L897.3,520.8L897.2,520.8L897.2,520.8L897.1,520.8L897,520.8L897,520.9L896.9,520.9L896.9,521L896.8,521L896.8,521.1L896.8,521.2L896.8,521.2L896.8,521.3L896.8,521.4L896.8,522.6L896.8,522.7L896.8,522.8L896.8,522.8L896.8,522.9L896.8,523L896.9,523L896.9,523.1L897,523.1L897,523.2L897.1,523.2L897.2,523.2L897.2,523.2L897.3,523.2L897.3,523.2L902.7,523.2L902.7,523.2L902.8,523.2L902.8,523.2L902.9,523.2L903,523.2L903,523.1L903.1,523.1L903.1,523L903.2,523L903.2,522.9L903.2,522.8L903.2,522.8L903.2,522.7L903.2,522.6Z"/>
<path d="M783.2,729.4L783.2,729.3L783.2,729.2L783.2,729.2L783.2,729.1L783.2,729L783.1,729L783.1,728.9L783,728.9L783,728.8L782.9,728.8L782.8,728.8L782.8,728.8L782.7,728.8L782.7,728.8L777.3,728.8L777.3,728.8L777.2,728.8L777.2,728.8L777.1,728.8L777,728.8L777,728.9L776.9,728.9L776.9,729L776.8,729L776.8,729.1L776.8,729.2L776.8,729.2L776.8,729.3L776.8,729.4L776.8,730.6L776.8,730.7L776.8,730.8L776.8,730.8L776.8,730.9L776.8,731L776.9,731L776.9,731.1L777,731.1L777,731.2L777.1,731.2L777.2,731.2L777.2,731.2L777.3,731.2L777.3,731.2L782.7,731.2L782.7,731.2L782.8,731.2L782.8,731.2L782.9,731.2L783,731.2L783,731.1L783.1,731.1L783.1,731L783.2,731L783.2,730.9L783.2,730.8L783.2,730.8L783.2,730.7L783.2,730.6Z"/>
<path d="M783.2,503.4L783.2,503.3L783.2,503.2L783.2,503.2L783.2,503.1L783.2,503L783.1,503L783.1,502.9L783,502.9L783,502.8L782.9,502.8L782.8,502.8L782.8,502.8L782.7,502.8L782.7,502.8L777.3,502.8L777.3,502.8L777.2,502.8L777.2,502.8L777.1,502.8L777,502.8L777,502.9L776.9,502.9L776.9,503L776.8,503L776.8,503.1L776.8,503.2L776.8,503.2L776.8,503.3L776.8,503.4L776.8,504.6L776.8,504.7L776.8,504.8L776.8,504.8L776.8,504.9L776.8,505L776.9,505L776.9,505.1L777,505.1L777,505.2L777.1,505.2L777.2,505.2L777.2,505.2L777.3,505.2L777.3,505.2L782.7,505.2L782.7,505.2L782.8,505.2L782.8,505.2L782.9,505.2L783,505.2L783,505.1L783.1,505.1L783.1,505L783.2,505L783.2,504.9L783.2,504.8L783.2,504.8L783.2,504.7L783.2,504.6Z"/>
<path d="M783.2,711.4L783.2,711.3L783.2,711.2L783.2,711.2L783.2,711.1L783.2,711L783.1,711L783.1,710.9L783,710.9L783,710.8L782.9,710.8L782.8,710.8L782.8,710.8L782.7,710.8L782.7,710.8L777.3,710.8L777.3,710.8L777.2,710.8L777.2,710.8L777.1,710.8L777,710.8L777,710.9L776.9,710.9L776.9,711L776.8,711L776.8,711.1L776.8,711.2L776.8,711.2L776.8,711.3L776.8,711.4L776.8,712.6L776.8,712.7L776.8,712.8L776.8,712.8L776.8,712.9L776.8,713L776.9,713L776.9,713.1L777,713.1L777,713.2L777.1,713.2L777.2,713.2L777.2,713.2L777.3,713.2L777.3,713.2L782.7,713.2L782.7,713.2L782.8,713.2L782.8,713.2L782.9,713.2L783,713.2L783,713.1L783.1,713.1L783.1,713L783.2,713L783.2,712.9L783.2,712.8L783.2,712.8L783.2,712.7L783.2,712.6Z"/>
<path d="M783.2,521.4L783.2,521.3L783.2,521.2L783.2,521.2L783.2,521.1L783.2,521L783.1,521L783.1,520.9L783,520.9L783,520.8L782.9,520.8L782.8,520.8L782.8,520.8L782.7,520.8L782.7,520.8L777.3,520.8L777.3,520.8L777.2,520.8L777.2,520.8L777.1,520.8L777,520.8L777,520.9L776.9,520.9L776.9,521L776.8,521L776.8,521.1L776.8,521.2L776.8,521.2L776.8,521.3L776.8,521.4L776.8,522.6L776.8,522.7L776.8,522.8L776.8,522.8L776.8,522.9L776.8,523L776.9,523L776.9,523.1L777,523.1L777,523.2L777.1,523.2L777.2,523.2L777.2,523.2L777.3,523.2L777.3,523.2L782.7,523.2L782.7,523.2L782.8,523.2L782.8,523.2L782.9,523.2L783,523.2L783,523.1L783.1,523.1L783.1,523L783.2,523L783.2,522.9L783.2,522.8L783.2,522.8L783.2,522.7L783.2,522.6Z"/>
<path d="M673.2,729.4L673.2,729.3L673.2,729.2L673.2,729.2L673.2,729.1L673.2,729L673.1,729L673.1,728.9L673,728.9L673,728.8L672.9,728.8L672.8,728.8L672.8,728.8L672.7,728.8L672.7,728.8L667.3,728.8L667.3,728.8L667.2,728.8L667.2,728.8L667.1,728.8L667,728.8L667,728.9L666.9,728.9L666.9,729L666.8,729L666.8,729.1L666.8,729.2L666.8,729.2L666.8,729.3L666.8,729.4L666.8,730.6L666.8,730.7L666.8,730.8L666.8,730.8L666.8,730.9L666.8,731L666.9,731L666.9,731.1L667,731.1L667,731.2L667.1,731.2L667.2,731.2L667.2,731.2L667.3,731.2L667.3,731.2L672.7,731.2L672.7,731.2L672.8,731.2L672.8,731.2L672.9,731.2L673,731.2L673,731.1L673.1,731.1L673.1,731L673.2,731L673.2,730.9L673.2,730.8L673.2,730.8L673.2,730.7L673.2,730.6Z"/>
<path d="M673.2,503.4L673.2,503.3L673.2,503.2L673.2,503.2L673.2,503.1L673.2,503L673.1,503L673.1,502.9L673,502.9L673,502.8L672.9,502.8L672.8,502.8L672.8,502.8L672.7,502.8L672.7,502.8L667.3,502.8L667.3,502.8L667.2,502.8L667.2,502.8L667.1,502.8L667,502.8L667,502.9L666.9,502.9L666.9,503L666.8,503L666.8,503.1L666.8,503.2L666.8,503.2L666.8,503.3L666.8,503.4L666.8,504.6L666.8,504.7L666.8,504.8L666.8,504.8L666.8,504.9L666.8,505L666.9,505L666.9,505.1L667,505.1L667,505.2L667.1,505.2L667.2,505.2L667.2,505.2L667.3,505.2L667.3,505.2L672.7,505.2L672.7,505.2L672.8,505.2L672.8,505.2L672.9,505.2L673,505.2L673,505.1L673.1,505.1L673.1,505L673.2,505L673.2,504.9L673.2,504.8L673.2,504.8L673.2,504.7L673.2,504.6Z"/>
<path d="M673.2,711.4L673.2,711.3L673.2,711.2L673.2,711.2L673.2,711.1L673.2,711L673.1,711L673.1,710.9L673,710.9L673,710.8L672.9,710.8L672.8,710.8L672.8,710.8L672.7,710.8L672.7,710.8L667.3,710.8L667.3,710.8L667.2,710.8L667.2,710.8L667.1,710.8L667,710.8L667,710.9L666.9,710.9L666.9,711L666.8,711L666.8,711.1L666.8,711.2L666.8,711.2L666.8,711.3L666.8,711.4L666.8,712.6L666.8,712.7L666.8,712.8L666.8,712.8L666.8,712.9L666.8,713L666.9,713L666.9,713.1L667,713.1L667,713.2L667.1,713.2L667.2,713.2L667.2,713.2L667.3,713.2L667.3,713.2L672.7,713.2L672.7,713.2L672.8,713.2L672.8,713.2L672.9,713.2L673,713.2L673,713.1L673.1,713.1L673.1,713L673.2,713L673.2,712.9L673.2,712.8L673.2,712.8L673.2,712.7L673.2,712.6Z"/>
<path d="M673.2,521.4L673.2,521.3L673.2,521.2L673.2,521.2L673.2,521.1L673.2,521L673.1,521L673.1,520.9L673,520.9L673,520.8L672.9,520.8L672.8,520.8L672.8,520.8L672.7,520.8L672.7,520.8L667.3,520.8L667.3,520.8L667.2,520.8L667.2,520.8L667.1,520.8L667,520.8L667,520.9L666.9,520.9L666.9,521L666.8,521L666.8,521.1L666.8,521.2L666.8,521.2L666.8,521.3L666.8,521.4L666.8,522.6L666.8,522.7L666.8,522.8L666.8,522.8L666.8,522.9L666.8,523L666.9,523L666.9,523.1L667,523.1L667,523.2L667.1,523.2L667.2,523.2L667.2,523.2L667.3,523.2L667.3,523.2L672.7,523.2L672.7,523.2L672.8,523.2L672.8,523.2L672.9,523.2L673,523.2L673,523.1L673.1,523.1L673.1,523L673.2,523L673.2,522.9L673.2,522.8L673.2,522.8L673.2,522.7L673.2,522.6Z"/>
<path d="M53.2,729.4L53.2,729.3L53.2,729.2L53.2,729.2L53.2,729.1L53.2,729L53.1,729L53.1,728.9L53,728.9L53,728.8L52.9,728.8L52.8,728.8L52.8,728.8L52.7,728.8L52.7,728.8L47.3,728.8L47.3,728.8L47.2,728.8L47.2,728.8L47.1,728.8L47,728.8L47,728.9L46.9,728.9L46.9,729L46.8,729L46.8,729.1L46.8,729.2L46.8,729.2L46.8,729.3L46.8,729.4L46.8,730.6L46.8,730.7L46.8,730.8L46.8,730.8L46.8,730.9L46.8,731L46.9,731L46.9,731.1L47,731.1L47,731.2L47.1,731.2L47.2,731.2L47.2,731.2L47.3,731.2L47.3,731.2L52.7,731.2L52.7,731.2L52.8,731.2L52.8,731.2L52.9,731.2L53,731.2L53,731.1L53.1,731.1L53.1,731L53.2,731L53.2,730.9L53.2,730.8L53.2,730.8L53.2,730.7L53.2,730.6Z"/>
<path d="M53.2,503.4L53.2,503.3L53.2,503.2L53.2,503.2L53.2,503.1L53.2,503L53.1,503L53.1,502.9L53,502.9L53,502.8L52.9,502.8L52.8,502.8L52.8,502.8L52.7,502.8L52.7,502.8L47.3,502.8L47.3,502.8L47.2,502.8L47.2,502.8L47.1,502.8L47,502.8L47,502.9L46.9,502.9L46.9,503L46.8,503L46.8,503.1L46.8,503.2L46.8,503.2L46.8,503.3L46.8,503.4L46.8,504.6L46.8,504.7L46.8,504.8L46.8,504.8L46.8,504.9L46.8,505L46.9,505L46.9,505.1L47,505.1L47,505.2L47.1,505.2L47.2,505.2L47.2,505.2L47.3,505.2L47.3,505.2L52.7,505.2L52.7,505.2L52.8,505.2L52.8,505.2L52.9,505.2L53,505.2L53,505.1L53.1,505.1L53.1,505L53.2,505L53.2,504.9L53.2,504.8L53.2,504.8L53.2,504.7L53.2,504.6Z"/>
<path d="M53.2,711.4L53.2,711.3L53.2,711.2L53.2,711.2L53.2,711.1L53.2,711L53.1,711L53.1,710.9L53,710.9L53,710.8L52.9,710.8L52.8,710.8L52.8,710.8L52.7,710.8L52.7,710.8L47.3,710.8L47.3,710.8L47.2,710.8L47.2,710.8L47.1,710.8L47,710.8L47,710.9L46.9,710.9L46.9,711L46.8,711L46.8,711.1L46.8,711.2L46.8,711.2L46.8,711.3L46.8,711.4L46.8,712.6L46.8,712.7L46.8,712.8L46.8,712.8L46.8,712.9L46.8,713L46.9,713L46.9,713.1L47,713.1L47,713.2L47.1,713.2L47.2,713.2L47.2,713.2L47.3,713.2L47.3,713.2L52.7,713.2L52.7,713.2L52.8,713.2L52.8,713.2L52.9,713.2L53,713.2L53,713.1L53.1,713.1L53.1,713L53.2,713L53.2,712.9L53.2,712.8L53.2,712.8L53.2,712.7L53.2,712.6Z"/>
<path d="M53.2,521.4L53.2,521.3L53.2,521.2L53.2,521.2L53.2,521.1L53.2,521L53.1,521L53.1,520.9L53,520.9L53,520.8L52.9,520.8L52.8,520.8L52.8,520.8L52.7,520.8L52.7,520.8L47.3,520.8L47.3,520.8L47.2,520.8L47.2,520.8L47.1,520.8L47,520.8L47,520.9L46.9,520.9L46.9,521L46.8,521L46.8,521.1L46.8,521.2L46.8,521.2L46.8,521.3L46.8,521.4L46.8,522.6L46.8,522.7L46.8,522.8L46.8,522.8L46.8,522.9L46.8,523L46.9,523L46.9,523.1L47,523.1L47,523.2L47.1,523.2L47.2,523.2L47.2,523.2L47.3,523.2L47.3,523.2L52.7,523.2L52.7,523.2L52.8,523.2L52.8,523.2L52.9,523.2L53,523.2L53,523.1L53.1,523.1L53.1,523L53.2,523L53.2,522.9L53.2,522.8L53.2,522.8L53.2,522.7L53.2,522.6Z"/>
<path d="M994,742L994,702L1000,702L1000,672L994,672L994,632L1000,632L1000,602L994,602L994,562L1000,562L1000,532L994,532L994,492L969.4,492L969.4,498L939.4,498L939.4,492L908.8,492L908.8,498L878.8,498L878.8,492L848.2,492L848.2,498L818.2,498L818.2,492L787.6,492L787.6,498L757.6,498L757.6,492L727.1,492L727.1,498L697.1,498L697.1,492L666.5,492L666.5,498L636.5,498L636.5,492L605.9,492L605.9,498L575.9,498L575.9,492L545.3,492L545.3,498L515.3,498L515.3,492L484.7,492L484.7,498L454.7,498L454.7,492L424.1,492L424.1,498L394.1,498L394.1,492L363.5,492L363.5,498L333.5,498L333.5,492L302.9,492L302.9,498L272.9,498L272.9,492L242.4,492L242.4,498L212.4,498L212.4,492L181.8,492L181.8,498L151.8,498L151.8,492L121.2,492L121.2,498L91.2,498L91.2,492L60.6,492L60.6,498L30.6,498L30.6,492L6,492L6,532L0,532L0,562L6,562L6,602L0,602L0,632L6,632L6,672L0,672L0,702L6,702L6,742L30.6,742L30.6,736L60.6,736L60.6,742L91.2,742L91.2,736L121.2,736L121.2,742L151.8,742L151.8,736L181.8,736L181.8,742L212.4,742L212.4,736L242.4,736L242.4,742L272.9,742L272.9,736L302.9,736L302.9,742L333.5,742L333.5,736L363.5,736L363.5,742L394.1,742L394.1,736L424.1,736L424.1,742L454.7,742L454.7,736L484.7,736L484.7,742L515.3,742L515.3,736L545.3,736L545.3,742L575.9,742L575.9,736L605.9,736L605.9,742L636.5,742L636.5,736L666.5,736L666.5,742L697.1,742L697.1,736L727.1,736L727.1,742L757.6,742L757.6,736L787.6,736L787.6,742L818.2,742L818.2,736L848.2,736L848.2,742L878.8,742L878.8,736L908.8,736L908.8,742L939.4,742L939.4,736L969.4,736L969.4,742L994,742Z"/>
<path d="M545,467.4L544.9,467.4L544.7,467.4L544.6,467.5L544.5,467.5L544.3,467.5L544.2,467.6L544.1,467.7L544,467.8L543.9,467.9L543.8,468L543.7,468.1L543.6,468.2L543.5,468.3L543.5,468.5L543.5,468.6L543.4,468.7L543.4,468.9L543.4,469L543.4,469.1L543.4,469.3L543.5,469.4L543.5,469.5L543.5,469.7L543.6,469.8L543.7,469.9L543.8,470L543.9,470.1L544,470.2L544.1,470.3L544.2,470.4L544.3,470.5L544.5,470.5L544.6,470.5L544.7,470.6L544.9,470.6L545,470.6L545.1,470.6L545.3,470.6L545.4,470.5L545.5,470.5L545.7,470.5L545.8,470.4L545.9,470.3L546,470.2L546.1,470.1L546.2,470L546.3,469.9L546.4,469.8L546.5,469.7L546.5,469.5L546.5,469.4L546.6,469.3L546.6,469.1L546.6,469L546.6,468.9L546.6,468.7L546.5,468.6L546.5,468.5L546.5,468.3L546.4,468.2L546.3,468.1L546.2,468L546.1,467.9L546,467.8L545.9,467.7L545.8,467.6L545.7,467.5L545.5,467.5L545.4,467.5L545.3,467.4L545.1,467.4Z"/>
<path d="M368.3,467.4L368.2,467.4L368.1,467.4L367.9,467.5L367.8,467.5L367.7,467.5L367.5,467.6L367.4,467.7L367.3,467.8L367.2,467.9L367.1,468L367,468.1L366.9,468.2L366.9,468.3L366.8,468.5L366.8,468.6L366.8,468.7L366.7,468.9L366.7,469L366.7,469.1L366.8,469.3L366.8,469.4L366.8,469.5L366.9,469.7L366.9,469.8L367,469.9L367.1,470L367.2,470.1L367.3,470.2L367.4,470.3L367.5,470.4L367.7,470.5L367.8,470.5L367.9,470.5L368.1,470.6L368.2,470.6L368.3,470.6L368.5,470.6L368.6,470.6L368.7,470.5L368.9,470.5L369,470.5L369.1,470.4L369.3,470.3L369.4,470.2L369.5,470.1L369.6,470L369.6,469.9L369.7,469.8L369.8,469.7L369.8,469.5L369.9,469.4L369.9,469.3L369.9,469.1L369.9,469L369.9,468.9L369.9,468.7L369.9,468.6L369.8,468.5L369.8,468.3L369.7,468.2L369.6,468.1L369.6,468L369.5,467.9L369.4,467.8L369.3,467.7L369.1,467.6L369,467.5L368.9,467.5L368.7,467.5L368.6,467.4L368.5,467.4Z"/>
<path d="M191.7,467.4L191.5,467.4L191.4,467.4L191.3,467.5L191.1,467.5L191,467.5L190.9,467.6L190.7,467.7L190.6,467.8L190.5,467.9L190.4,468L190.4,468.1L190.3,468.2L190.2,468.3L190.2,468.5L190.1,468.6L190.1,468.7L190.1,468.9L190.1,469L190.1,469.1L190.1,469.3L190.1,469.4L190.2,469.5L190.2,469.7L190.3,469.8L190.4,469.9L190.4,470L190.5,470.1L190.6,470.2L190.7,470.3L190.9,470.4L191,470.5L191.1,470.5L191.3,470.5L191.4,470.6L191.5,470.6L191.7,470.6L191.8,470.6L191.9,470.6L192.1,470.5L192.2,470.5L192.3,470.5L192.5,470.4L192.6,470.3L192.7,470.2L192.8,470.1L192.9,470L193,469.9L193.1,469.8L193.1,469.7L193.2,469.5L193.2,469.4L193.2,469.3L193.3,469.1L193.3,469L193.3,468.9L193.2,468.7L193.2,468.6L193.2,468.5L193.1,468.3L193.1,468.2L193,468.1L192.9,468L192.8,467.9L192.7,467.8L192.6,467.7L192.5,467.6L192.3,467.5L192.2,467.5L192.1,467.5L191.9,467.4L191.8,467.4Z"/>
<path d="M15,467.4L14.9,467.4L14.7,467.4L14.6,467.5L14.5,467.5L14.3,467.5L14.2,467.6L14.1,467.7L14,467.8L13.9,467.9L13.8,468L13.7,468.1L13.6,468.2L13.5,468.3L13.5,468.5L13.5,468.6L13.4,468.7L13.4,468.9L13.4,469L13.4,469.1L13.4,469.3L13.5,469.4L13.5,469.5L13.5,469.7L13.6,469.8L13.7,469.9L13.8,470L13.9,470.1L14,470.2L14.1,470.3L14.2,470.4L14.3,470.5L14.5,470.5L14.6,470.5L14.7,470.6L14.9,470.6L15,470.6L15.1,470.6L15.3,470.6L15.4,470.5L15.5,470.5L15.7,470.5L15.8,470.4L15.9,470.3L16,470.2L16.1,470.1L16.2,470L16.3,469.9L16.4,469.8L16.5,469.7L16.5,469.5L16.5,469.4L16.6,469.3L16.6,469.1L16.6,469L16.6,468.9L16.6,468.7L16.5,468.6L16.5,468.5L16.5,468.3L16.4,468.2L16.3,468.1L16.2,468L16.1,467.9L16,467.8L15.9,467.7L15.8,467.6L15.7,467.5L15.5,467.5L15.4,467.5L15.3,467.4L15.1,467.4Z"/>
<path d="M545,257.4L544.9,257.4L544.7,257.4L544.6,257.5L544.5,257.5L544.3,257.5L544.2,257.6L544.1,257.7L544,257.8L543.9,257.9L543.8,258L543.7,258.1L543.6,258.2L543.5,258.3L543.5,258.5L543.5,258.6L543.4,258.7L543.4,258.9L543.4,259L543.4,259.1L543.4,259.3L543.5,259.4L543.5,259.5L543.5,259.7L543.6,259.8L543.7,259.9L543.8,260L543.9,260.1L544,260.2L544.1,260.3L544.2,260.4L544.3,260.5L544.5,260.5L544.6,260.5L544.7,260.6L544.9,260.6L545,260.6L545.1,260.6L545.3,260.6L545.4,260.5L545.5,260.5L545.7,260.5L545.8,260.4L545.9,260.3L546,260.2L546.1,260.1L546.2,260L546.3,259.9L546.4,259.8L546.5,259.7L546.5,259.5L546.5,259.4L546.6,259.3L546.6,259.1L546.6,259L546.6,258.9L546.6,258.7L546.5,258.6L546.5,258.5L546.5,258.3L546.4,258.2L546.3,258.1L546.2,258L546.1,257.9L546,257.8L545.9,257.7L545.8,257.6L545.7,257.5L545.5,257.5L545.4,257.5L545.3,257.4L545.1,257.4Z"/>
<path d="M368.3,257.4L368.2,257.4L368.1,257.4L367.9,257.5L367.8,257.5L367.7,257.5L367.5,257.6L367.4,257.7L367.3,257.8L367.2,257.9L367.1,258L367,258.1L366.9,258.2L366.9,258.3L366.8,258.5L366.8,258.6L366.8,258.7L366.7,258.9L366.7,259L366.7,259.1L366.8,259.3L366.8,259.4L366.8,259.5L366.9,259.7L366.9,259.8L367,259.9L367.1,260L367.2,260.1L367.3,260.2L367.4,260.3L367.5,260.4L367.7,260.5L367.8,260.5L367.9,260.5L368.1,260.6L368.2,260.6L368.3,260.6L368.5,260.6L368.6,260.6L368.7,260.5L368.9,260.5L369,260.5L369.1,260.4L369.3,260.3L369.4,260.2L369.5,260.1L369.6,260L369.6,259.9L369.7,259.8L369.8,259.7L369.8,259.5L369.9,259.4L369.9,259.3L369.9,259.1L369.9,259L369.9,258.9L369.9,258.7L369.9,258.6L369.8,258.5L369.8,258.3L369.7,258.2L369.6,258.1L369.6,258L369.5,257.9L369.4,257.8L369.3,257.7L369.1,257.6L369,257.5L368.9,257.5L368.7,257.5L368.6,257.4L368.5,257.4Z"/>
<path d="M191.7,257.4L191.5,257.4L191.4,257.4L191.3,257.5L191.1,257.5L191,257.5L190.9,257.6L190.7,257.7L190.6,257.8L190.5,257.9L190.4,258L190.4,258.1L190.3,258.2L190.2,258.3L190.2,258.5L190.1,258.6L190.1,258.7L190.1,258.9L190.1,259L190.1,259.1L190.1,259.3L190.1,259.4L190.2,259.5L190.2,259.7L190.3,259.8L190.4,259.9L190.4,260L190.5,260.1L190.6,260.2L190.7,260.3L190.9,260.4L191,260.5L191.1,260.5L191.3,260.5L191.4,260.6L191.5,260.6L191.7,260.6L191.8,260.6L191.9,260.6L192.1,260.5L192.2,260.5L192.3,260.5L192.5,260.4L192.6,260.3L192.7,260.2L192.8,260.1L192.9,260L193,259.9L193.1,259.8L193.1,259.7L193.2,259.5L193.2,259.4L193.2,259.3L193.3,259.1L193.3,259L193.3,258.9L193.2,258.7L193.2,258.6L193.2,258.5L193.1,258.3L193.1,258.2L193,258.1L192.9,258L192.8,257.9L192.7,257.8L192.6,257.7L192.5,257.6L192.3,257.5L192.2,257.5L192.1,257.5L191.9,257.4L191.8,257.4Z"/>
<path d="M15,257.4L14.9,257.4L14.7,257.4L14.6,257.5L14.5,257.5L14.3,257.5L14.2,257.6L14.1,257.7L14,257.8L13.9,257.9L13.8,258L13.7,258.1L13.6,258.2L13.5,258.3L13.5,258.5L13.5,258.6L13.4,258.7L13.4,258.9L13.4,259L13.4,259.1L13.4,259.3L13.5,259.4L13.5,259.5L13.5,259.7L13.6,259.8L13.7,259.9L13.8,260L13.9,260.1L14,260.2L14.1,260.3L14.2,260.4L14.3,260.5L14.5,260.5L14.6,260.5L14.7,260.6L14.9,260.6L15,260.6L15.1,260.6L15.3,260.6L15.4,260.5L15.5,260.5L15.7,260.5L15.8,260.4L15.9,260.3L16,260.2L16.1,260.1L16.2,260L16.3,259.9L16.4,259.8L16.5,259.7L16.5,259.5L16.5,259.4L16.6,259.3L16.6,259.1L16.6,259L16.6,258.9L16.6,258.7L16.5,258.6L16.5,258.5L16.5,258.3L16.4,258.2L16.3,258.1L16.2,258L16.1,257.9L16,257.8L15.9,257.7L15.8,257.6L15.7,257.5L15.5,257.5L15.4,257.5L15.3,257.4L15.1,257.4Z"/>
<path d="M560,247L560,246.7L559.9,246.3L559.8,246L559.7,245.7L559.5,245.4L559.3,245.1L559.1,244.9L558.9,244.7L558.6,244.5L558.3,244.3L558,244.2L557.7,244.1L557.3,244L557,244L3,244L2.7,244L2.3,244.1L2,244.2L1.7,244.3L1.4,244.5L1.1,244.7L0.9,244.9L0.7,245.1L0.5,245.4L0.3,245.7L0.2,246L0.1,246.3L0,246.7L0,247L0,481L0,481.3L0.1,481.7L0.2,482L0.3,482.3L0.5,482.6L0.7,482.9L0.9,483.1L1.1,483.3L1.4,483.5L1.7,483.7L2,483.8L2.3,483.9L2.7,484L3,484L557,484L557.3,484L557.7,483.9L558,483.8L558.3,483.7L558.6,483.5L558.9,483.3L559.1,483.1L559.3,482.9L559.5,482.6L559.7,482.3L559.8,482L559.9,481.7L560,481.3L560,481Z"/>
<path d="M574,484L586,484L638,394L748,394L800,484L812,484L812,444L818,444L818,404L812,404L812,328L818,328L818,288L812,288L812,248L574,248L574,288L568,288L568,328L574,328L574,404L568,404L568,444L574,444Z"/>
<path d="M6,236L18,236L70,146L180,146L232,236L244,236L244,196L250,196L250,156L244,156L244,80L250,80L250,40L244,40L244,0L6,0L6,40L0,40L0,80L6,80L6,156L0,156L0,196L6,196Z"/>
<path d="M264,236L276,236L328,146L438,146L490,236L502,236L502,196L508,196L508,156L502,156L502,80L508,80L508,40L502,40L502,0L264,0L264,40L258,40L258,80L264,80L264,156L258,156L258,196L264,196Z"/>
<path d="M159.2,659L159.2,658L159.1,657L158.9,656.1L158.6,655.2L158.2,654.2L157.7,653.4L157.2,652.5L156.6,651.8L156,651L155.2,650.4L154.5,649.8L153.6,649.3L152.8,648.8L151.8,648.4L150.9,648.1L150,647.9L149,647.8L148,647.8L147,647.8L146,647.9L145.1,648.1L144.2,648.4L143.2,648.8L142.4,649.3L141.5,649.8L140.8,650.4L140,651L139.4,651.8L138.8,652.5L138.3,653.4L137.8,654.2L137.4,655.2L137.1,656.1L136.9,657L136.8,658L136.8,659L136.8,660L136.9,661L137.1,661.9L137.4,662.8L137.8,663.8L138.3,664.6L138.8,665.5L139.4,666.2L140,667L140.8,667.6L141.5,668.2L142.4,668.7L143.2,669.2L144.2,669.6L145.1,669.9L146,670.1L147,670.2L148,670.2L149,670.2L150,670.1L150.9,669.9L151.8,669.6L152.8,669.2L153.6,668.7L154.5,668.2L155.2,667.6L156,667L156.6,666.2L157.2,665.5L157.7,664.6L158.2,663.8L158.6,662.8L158.9,661.9L159.1,661L159.2,660Z"/>
<path d="M124.1,684.5L124.1,684.4L124.1,684.2L124,684.1L124,684L124,683.8L123.9,683.7L123.8,683.6L123.7,683.5L123.6,683.4L123.5,683.3L123.4,683.2L123.3,683.1L123.2,683L123,683L122.9,683L122.8,682.9L122.6,682.9L122.5,682.9L122.4,682.9L122.2,682.9L122.1,683L122,683L121.8,683L121.7,683.1L121.6,683.2L121.5,683.3L121.4,683.4L121.3,683.5L121.2,683.6L121.1,683.7L121,683.8L121,684L121,684.1L120.9,684.2L120.9,684.4L120.9,684.5L120.9,684.6L120.9,684.8L121,684.9L121,685L121,685.2L121.1,685.3L121.2,685.4L121.3,685.5L121.4,685.6L121.5,685.7L121.6,685.8L121.7,685.9L121.8,686L122,686L122.1,686L122.2,686.1L122.4,686.1L122.5,686.1L122.6,686.1L122.8,686.1L122.9,686L123,686L123.2,686L123.3,685.9L123.4,685.8L123.5,685.7L123.6,685.6L123.7,685.5L123.8,685.4L123.9,685.3L124,685.2L124,685L124,684.9L124.1,684.8L124.1,684.6Z"/>
<path d="M124.1,633.5L124.1,633.4L124.1,633.2L124,633.1L124,633L124,632.8L123.9,632.7L123.8,632.6L123.7,632.5L123.6,632.4L123.5,632.3L123.4,632.2L123.3,632.1L123.2,632L123,632L122.9,632L122.8,631.9L122.6,631.9L122.5,631.9L122.4,631.9L122.2,631.9L122.1,632L122,632L121.8,632L121.7,632.1L121.6,632.2L121.5,632.3L121.4,632.4L121.3,632.5L121.2,632.6L121.1,632.7L121,632.8L121,633L121,633.1L120.9,633.2L120.9,633.4L120.9,633.5L120.9,633.6L120.9,633.8L121,633.9L121,634L121,634.2L121.1,634.3L121.2,634.4L121.3,634.5L121.4,634.6L121.5,634.7L121.6,634.8L121.7,634.9L121.8,635L122,635L122.1,635L122.2,635.1L122.4,635.1L122.5,635.1L122.6,635.1L122.8,635.1L122.9,635L123,635L123.2,635L123.3,634.9L123.4,634.8L123.5,634.7L123.6,634.6L123.7,634.5L123.8,634.4L123.9,634.3L124,634.2L124,634L124,633.9L124.1,633.8L124.1,633.6Z"/>
<path d="M175.1,684.5L175.1,684.4L175.1,684.2L175,684.1L175,684L175,683.8L174.9,683.7L174.8,683.6L174.7,683.5L174.6,683.4L174.5,683.3L174.4,683.2L174.3,683.1L174.2,683L174,683L173.9,683L173.8,682.9L173.6,682.9L173.5,682.9L173.4,682.9L173.2,682.9L173.1,683L173,683L172.8,683L172.7,683.1L172.6,683.2L172.5,683.3L172.4,683.4L172.3,683.5L172.2,683.6L172.1,683.7L172,683.8L172,684L172,684.1L171.9,684.2L171.9,684.4L171.9,684.5L171.9,684.6L171.9,684.8L172,684.9L172,685L172,685.2L172.1,685.3L172.2,685.4L172.3,685.5L172.4,685.6L172.5,685.7L172.6,685.8L172.7,685.9L172.8,686L173,686L173.1,686L173.2,686.1L173.4,686.1L173.5,686.1L173.6,686.1L173.8,686.1L173.9,686L174,686L174.2,686L174.3,685.9L174.4,685.8L174.5,685.7L174.6,685.6L174.7,685.5L174.8,685.4L174.9,685.3L175,685.2L175,685L175,684.9L175.1,684.8L175.1,684.6Z"/>
<path d="M175.1,633.5L175.1,633.4L175.1,633.2L175,633.1L175,633L175,632.8L174.9,632.7L174.8,632.6L174.7,632.5L174.6,632.4L174.5,632.3L174.4,632.2L174.3,632.1L174.2,632L174,632L173.9,632L173.8,631.9L173.6,631.9L173.5,631.9L173.4,631.9L173.2,631.9L173.1,632L173,632L172.8,632L172.7,632.1L172.6,632.2L172.5,632.3L172.4,632.4L172.3,632.5L172.2,632.6L172.1,632.7L172,632.8L172,633L172,633.1L171.9,633.2L171.9,633.4L171.9,633.5L171.9,633.6L171.9,633.8L172,633.9L172,634L172,634.2L172.1,634.3L172.2,634.4L172.3,634.5L172.4,634.6L172.5,634.7L172.6,634.8L172.7,634.9L172.8,635L173,635L173.1,635L173.2,635.1L173.4,635.1L173.5,635.1L173.6,635.1L173.8,635.1L173.9,635L174,635L174.2,635L174.3,634.9L174.4,634.8L174.5,634.7L174.6,634.6L174.7,634.5L174.8,634.4L174.9,634.3L175,634.2L175,634L175,633.9L175.1,633.8L175.1,633.6Z"/>
<path d="M193,659L192.8,655.1L192.3,651.2L191.5,647.4L190.3,643.6L188.8,640L187,636.5L184.9,633.2L182.5,630.1L179.8,627.2L176.9,624.5L173.8,622.1L170.5,620L167,618.2L163.4,616.7L159.6,615.5L155.8,614.7L151.9,614.2L148,614L144.1,614.2L140.2,614.7L136.4,615.5L132.6,616.7L129,618.2L125.5,620L122.2,622.1L119.1,624.5L116.2,627.2L113.5,630.1L111.1,633.2L109,636.5L107.2,640L105.7,643.6L104.5,647.4L103.7,651.2L103.2,655.1L103,659L103.2,662.9L103.7,666.8L104.5,670.6L105.7,674.4L107.2,678L109,681.5L111.1,684.8L113.5,687.9L116.2,690.8L119.1,693.5L122.2,695.9L125.5,698L129,699.8L132.6,701.3L136.4,702.5L140.2,703.3L144.1,703.8L148,704L151.9,703.8L155.8,703.3L159.6,702.5L163.4,701.3L167,699.8L170.5,698L173.8,695.9L176.9,693.5L179.8,690.8L182.5,687.9L184.9,684.8L187,681.5L188.8,678L190.3,674.4L191.5,670.6L192.3,666.8L192.8,662.9Z"/>
<path d="M217.1,684.5L217.1,684.4L217.1,684.2L217,684.1L217,684L217,683.8L216.9,683.7L216.8,683.6L216.7,683.5L216.6,683.4L216.5,683.3L216.4,683.2L216.3,683.1L216.2,683L216,683L215.9,683L215.8,682.9L215.6,682.9L215.5,682.9L215.4,682.9L215.2,682.9L215.1,683L215,683L214.8,683L214.7,683.1L214.6,683.2L214.5,683.3L214.4,683.4L214.3,683.5L214.2,683.6L214.1,683.7L214,683.8L214,684L214,684.1L213.9,684.2L213.9,684.4L213.9,684.5L213.9,684.6L213.9,684.8L214,684.9L214,685L214,685.2L214.1,685.3L214.2,685.4L214.3,685.5L214.4,685.6L214.5,685.7L214.6,685.8L214.7,685.9L214.8,686L215,686L215.1,686L215.2,686.1L215.4,686.1L215.5,686.1L215.6,686.1L215.8,686.1L215.9,686L216,686L216.2,686L216.3,685.9L216.4,685.8L216.5,685.7L216.6,685.6L216.7,685.5L216.8,685.4L216.9,685.3L217,685.2L217,685L217,684.9L217.1,684.8L217.1,684.6Z"/>
<path d="M217.1,633.5L217.1,633.4L217.1,633.2L217,633.1L217,633L217,632.8L216.9,632.7L216.8,632.6L216.7,632.5L216.6,632.4L216.5,632.3L216.4,632.2L216.3,632.1L216.2,632L216,632L215.9,632L215.8,631.9L215.6,631.9L215.5,631.9L215.4,631.9L215.2,631.9L215.1,632L215,632L214.8,632L214.7,632.1L214.6,632.2L214.5,632.3L214.4,632.4L214.3,632.5L214.2,632.6L214.1,632.7L214,632.8L214,633L214,633.1L213.9,633.2L213.9,633.4L213.9,633.5L213.9,633.6L213.9,633.8L214,633.9L214,634L214,634.2L214.1,634.3L214.2,634.4L214.3,634.5L214.4,634.6L214.5,634.7L214.6,634.8L214.7,634.9L214.8,635L215,635L215.1,635L215.2,635.1L215.4,635.1L215.5,635.1L215.6,635.1L215.8,635.1L215.9,635L216,635L216.2,635L216.3,634.9L216.4,634.8L216.5,634.7L216.6,634.6L216.7,634.5L216.8,634.4L216.9,634.3L217,634.2L217,634L217,633.9L217.1,633.8L217.1,633.6Z"/>
<path d="M268.1,684.5L268.1,684.4L268.1,684.2L268,684.1L268,684L268,683.8L267.9,683.7L267.8,683.6L267.7,683.5L267.6,683.4L267.5,683.3L267.4,683.2L267.3,683.1L267.2,683L267,683L266.9,683L266.8,682.9L266.6,682.9L266.5,682.9L266.4,682.9L266.2,682.9L266.1,683L266,683L265.8,683L265.7,683.1L265.6,683.2L265.5,683.3L265.4,683.4L265.3,683.5L265.2,683.6L265.1,683.7L265,683.8L265,684L265,684.1L264.9,684.2L264.9,684.4L264.9,684.5L264.9,684.6L264.9,684.8L265,684.9L265,685L265,685.2L265.1,685.3L265.2,685.4L265.3,685.5L265.4,685.6L265.5,685.7L265.6,685.8L265.7,685.9L265.8,686L266,686L266.1,686L266.2,686.1L266.4,686.1L266.5,686.1L266.6,686.1L266.8,686.1L266.9,686L267,686L267.2,686L267.3,685.9L267.4,685.8L267.5,685.7L267.6,685.6L267.7,685.5L267.8,685.4L267.9,685.3L268,685.2L268,685L268,684.9L268.1,684.8L268.1,684.6Z"/>
<path d="M268.1,633.5L268.1,633.4L268.1,633.2L268,633.1L268,633L268,632.8L267.9,632.7L267.8,632.6L267.7,632.5L267.6,632.4L267.5,632.3L267.4,632.2L267.3,632.1L267.2,632L267,632L266.9,632L266.8,631.9L266.6,631.9L266.5,631.9L266.4,631.9L266.2,631.9L266.1,632L266,632L265.8,632L265.7,632.1L265.6,632.2L265.5,632.3L265.4,632.4L265.3,632.5L265.2,632.6L265.1,632.7L265,632.8L265,633L265,633.1L264.9,633.2L264.9,633.4L264.9,633.5L264.9,633.6L264.9,633.8L265,633.9L265,634L265,634.2L265.1,634.3L265.2,634.4L265.3,634.5L265.4,634.6L265.5,634.7L265.6,634.8L265.7,634.9L265.8,635L266,635L266.1,635L266.2,635.1L266.4,635.1L266.5,635.1L266.6,635.1L266.8,635.1L266.9,635L267,635L267.2,635L267.3,634.9L267.4,634.8L267.5,634.7L267.6,634.6L267.7,634.5L267.8,634.4L267.9,634.3L268,634.2L268,634L268,633.9L268.1,633.8L268.1,633.6Z"/>
<path d="M286,659L285.8,655.1L285.3,651.2L284.5,647.4L283.3,643.6L281.8,640L280,636.5L277.9,633.2L275.5,630.1L272.8,627.2L269.9,624.5L266.8,622.1L263.5,620L260,618.2L256.4,616.7L252.6,615.5L248.8,614.7L244.9,614.2L241,614L237.1,614.2L233.2,614.7L229.4,615.5L225.6,616.7L222,618.2L218.5,620L215.2,622.1L212.1,624.5L209.2,627.2L206.5,630.1L204.1,633.2L202,636.5L200.2,640L198.7,643.6L197.5,647.4L196.7,651.2L196.2,655.1L196,659L196.2,662.9L196.7,666.8L197.5,670.6L198.7,674.4L200.2,678L202,681.5L204.1,684.8L206.5,687.9L209.2,690.8L212.1,693.5L215.2,695.9L218.5,698L222,699.8L225.6,701.3L229.4,702.5L233.2,703.3L237.1,703.8L241,704L244.9,703.8L248.8,703.3L252.6,702.5L256.4,701.3L260,699.8L263.5,698L266.8,695.9L269.9,693.5L272.8,690.8L275.5,687.9L277.9,684.8L280,681.5L281.8,678L283.3,674.4L284.5,670.6L285.3,666.8L285.8,662.9Z"/>
</g>
<g fill="#5f6368" font-family="Helvetica, Arial, sans-serif" font-weight="700">
<text x="707.7" y="887" font-size="24">B6I</text>
<text x="707.7" y="629" font-size="24">B6E</text>
<text x="257.7" y="376" font-size="24">BSP</text>
<text x="671.1" y="377.8" font-size="23.6">BP1</text>
<text x="103.1" y="129.8" font-size="23.6">BP2</text>
<text x="361.1" y="129.8" font-size="23.6">BP3</text>
<text x="139.6" y="684.2" font-size="9">BTR</text>
<text x="232.6" y="663.5" font-size="9">BTF</text>
</g></svg>